<svg width="16" height="17" viewBox="0 0 16 17" fill="none" xmlns="http://www.w3.org/2000/svg">
<path fill-rule="evenodd" clip-rule="evenodd" d="M3.93403 1.87286C4.36857 1.87286 4.72083 2.22513 4.72083 2.65967V3.44648H5.50764C5.94218 3.44648 6.29445 3.79874 6.29445 4.23328C6.29445 4.66782 5.94218 5.02009 5.50764 5.02009H4.72083V5.80689C4.72083 6.24144 4.36857 6.5937 3.93403 6.5937C3.49949 6.5937 3.14722 6.24144 3.14722 5.80689V5.02009H2.36041C1.92587 5.02009 1.57361 4.66782 1.57361 4.23328C1.57361 3.79874 1.92587 3.44648 2.36041 3.44648H3.14722V2.65967C3.14722 2.22513 3.49949 1.87286 3.93403 1.87286ZM3.93403 9.74093C4.36857 9.74093 4.72083 10.0932 4.72083 10.5277V11.3145H5.50764C5.94218 11.3145 6.29445 11.6668 6.29445 12.1013C6.29445 12.5359 5.94218 12.8882 5.50764 12.8882H4.72083V13.675C4.72083 14.1095 4.36857 14.4618 3.93403 14.4618C3.49949 14.4618 3.14722 14.1095 3.14722 13.675V12.8882H2.36041C1.92587 12.8882 1.57361 12.5359 1.57361 12.1013C1.57361 11.6668 1.92587 11.3145 2.36041 11.3145H3.14722V10.5277C3.14722 10.0932 3.49949 9.74093 3.93403 9.74093Z" fill="url(#paint0_linear_1_4656)"/>
<path fill-rule="evenodd" clip-rule="evenodd" d="M9.44163 1.87286C9.79863 1.87286 10.1109 2.11322 10.2022 2.45833L11.1301 5.96341L13.7688 7.48579C14.0124 7.62631 14.1625 7.88612 14.1625 8.16731C14.1625 8.4485 14.0124 8.70832 13.7688 8.84883L11.1301 10.3712L10.2022 13.8763C10.1109 14.2214 9.79863 14.4618 9.44163 14.4618C9.08463 14.4618 8.77237 14.2214 8.68102 13.8763L7.7532 10.3712L5.11445 8.84883C4.87089 8.70831 4.72083 8.4485 4.72083 8.16731C4.72083 7.88613 4.87089 7.62631 5.11445 7.4858L7.7532 5.96342L8.68102 2.45833C8.77237 2.11322 9.08463 1.87286 9.44163 1.87286Z" fill="url(#paint1_linear_1_4656)"/>
<defs>
<linearGradient id="paint0_linear_1_4656" x1="7.86804" y1="1.87286" x2="7.86804" y2="14.4618" gradientUnits="userSpaceOnUse">
<stop stop-color="#00A3FF"/>
<stop offset="1" stop-color="#FEFCFF"/>
</linearGradient>
<linearGradient id="paint1_linear_1_4656" x1="7.86804" y1="1.87286" x2="7.86804" y2="14.4618" gradientUnits="userSpaceOnUse">
<stop stop-color="#00A3FF"/>
<stop offset="1" stop-color="#FEFCFF"/>
</linearGradient>
</defs>
</svg>
