<svg width="19" height="19" viewBox="0 0 19 19" fill="none" xmlns="http://www.w3.org/2000/svg">
<g clip-path="url(#clip0_1_5485)">
<path d="M8.69339 2.30271C8.92894 1.57786 9.95441 1.57786 10.19 2.30271L11.385 5.98017C11.4903 6.30433 11.7924 6.5238 12.1333 6.52381L16 6.52396C16.7622 6.52399 17.0791 7.49927 16.4625 7.94729L13.3343 10.2202C13.0586 10.4206 12.9432 10.7757 13.0485 11.0999L14.2432 14.7774C14.4787 15.5023 13.6491 16.105 13.0325 15.6571L9.90412 13.3844C9.62837 13.184 9.25498 13.184 8.97923 13.3844L5.85087 15.6571C5.23424 16.105 4.40462 15.5023 4.64011 14.7774L5.83487 11.0999C5.94018 10.7757 5.8248 10.4206 5.54906 10.2202L2.42087 7.94729C1.80428 7.49927 2.12117 6.52399 2.88334 6.52396L6.75009 6.52381C7.09094 6.5238 7.39301 6.30433 7.49835 5.98017L8.69339 2.30271Z" stroke="url(#paint0_linear_1_5485)" stroke-width="1.57361"/>
</g>
<defs>
<linearGradient id="paint0_linear_1_5485" x1="9.44167" y1="1.52588e-05" x2="9.44167" y2="18.8834" gradientUnits="userSpaceOnUse">
<stop stop-color="white"/>
<stop offset="0.328125" stop-color="#FBF4FD"/>
<stop offset="0.541667" stop-color="#FBFAFC"/>
<stop offset="0.770833" stop-color="#FCF2F7"/>
<stop offset="1" stop-color="#F3EEF0"/>
</linearGradient>
<clipPath id="clip0_1_5485">
<rect width="18.8833" height="18.8833" fill="white"/>
</clipPath>
</defs>
</svg>
