<svg width="16" height="17" viewBox="0 0 16 17" fill="none" xmlns="http://www.w3.org/2000/svg">
<path fill-rule="evenodd" clip-rule="evenodd" d="M11.273 5.29663C9.42936 3.45303 6.4403 3.45303 4.59669 5.29663C2.75309 7.14024 2.75309 10.1293 4.59669 11.9729C6.1991 13.5753 8.66856 13.7856 10.4974 12.6009C10.8621 12.3647 11.3493 12.4688 11.5855 12.8335C11.8218 13.1982 11.7176 13.6854 11.3529 13.9216C8.91398 15.5015 5.62209 15.2237 3.48398 13.0856C1.02585 10.6275 1.02585 6.64206 3.48398 4.18392C5.94212 1.72579 9.92754 1.72579 12.3857 4.18392C13.6146 5.41282 14.2293 7.02512 14.2293 8.63477C14.2293 9.93839 13.1725 10.9952 11.8689 10.9952C11.3375 10.9952 10.8472 10.8196 10.4527 10.5233C9.87848 11.2876 8.96439 11.782 7.93483 11.782C6.19667 11.782 4.78761 10.3729 4.78761 8.63477C4.78761 6.89661 6.19667 5.48755 7.93483 5.48755C9.67299 5.48755 11.0821 6.89661 11.0821 8.63477C11.0821 9.06931 11.4343 9.42158 11.8689 9.42158C12.3034 9.42158 12.6557 9.06931 12.6557 8.63478C12.6557 7.4254 12.1949 6.21857 11.273 5.29663ZM9.50844 8.63477C9.50844 7.76569 8.80391 7.06116 7.93483 7.06116C7.06575 7.06116 6.36122 7.76569 6.36122 8.63477C6.36122 9.50385 7.06575 10.2084 7.93483 10.2084C8.80391 10.2084 9.50844 9.50385 9.50844 8.63477Z" fill="url(#paint0_linear_1_5193)"/>
<defs>
<linearGradient id="paint0_linear_1_5193" x1="7.93483" y1="2.34032" x2="7.93483" y2="14.9291" gradientUnits="userSpaceOnUse">
<stop stop-color="#FF6FE8"/>
<stop offset="1" stop-color="#FE00C6"/>
</linearGradient>
</defs>
</svg>
