<svg width="16" height="17" viewBox="0 0 16 17" fill="none" xmlns="http://www.w3.org/2000/svg">
<path fill-rule="evenodd" clip-rule="evenodd" d="M3.93409 7.84796V6.27435C3.93409 4.10165 5.69541 2.34032 7.86812 2.34032C10.0408 2.34032 11.8021 4.10165 11.8021 6.27435V7.84796C12.6712 7.84796 13.3758 8.55249 13.3758 9.42158V13.3556C13.3758 14.2247 12.6712 14.9292 11.8021 14.9292H3.93409C3.065 14.9292 2.36047 14.2247 2.36047 13.3556V9.42158C2.36047 8.55249 3.065 7.84796 3.93409 7.84796ZM10.2285 6.27435V7.84796H5.5077V6.27435C5.5077 4.97073 6.56449 3.91393 7.86812 3.91393C9.17174 3.91393 10.2285 4.97073 10.2285 6.27435Z" fill="url(#paint0_linear_1_5137)"/>
<defs>
<linearGradient id="paint0_linear_1_5137" x1="7.86812" y1="2.34032" x2="7.86812" y2="14.9292" gradientUnits="userSpaceOnUse">
<stop stop-color="#FF6FE8"/>
<stop offset="1" stop-color="#FE00C6"/>
</linearGradient>
</defs>
</svg>
