<svg width="19" height="19" viewBox="0 0 19 19" fill="none" xmlns="http://www.w3.org/2000/svg">
<path d="M7.14802 14.9493V10.2285C7.14802 9.35942 6.44349 8.65488 5.57441 8.65488H4.0008C3.13172 8.65488 2.42719 9.35942 2.42719 10.2285V14.9493C2.42719 15.8184 3.13172 16.5229 4.0008 16.5229H5.57441C6.44349 16.5229 7.14802 15.8184 7.14802 14.9493ZM7.14802 14.9493V7.08127C7.14802 6.21219 7.85255 5.50766 8.72163 5.50766H10.2952C11.1643 5.50766 11.8689 6.21219 11.8689 7.08127V14.9493M7.14802 14.9493C7.14802 15.8184 7.85255 16.5229 8.72163 16.5229H10.2952C11.1643 16.5229 11.8689 15.8184 11.8689 14.9493M11.8689 14.9493V3.93405C11.8689 3.06497 12.5734 2.36044 13.4425 2.36044H15.0161C15.8852 2.36044 16.5897 3.06497 16.5897 3.93405V14.9493C16.5897 15.8184 15.8852 16.5229 15.0161 16.5229H13.4425C12.5734 16.5229 11.8689 15.8184 11.8689 14.9493Z" stroke="url(#paint0_linear_1_5483)" stroke-width="1.57361" stroke-linecap="round" stroke-linejoin="round"/>
<defs>
<linearGradient id="paint0_linear_1_5483" x1="9.50844" y1="2.36044" x2="9.50844" y2="16.5229" gradientUnits="userSpaceOnUse">
<stop stop-color="#2704FF"/>
<stop offset="0.328125" stop-color="#CE00FF"/>
<stop offset="0.541667" stop-color="#CE00FF"/>
<stop offset="0.770833" stop-color="#FF0071"/>
<stop offset="1" stop-color="#FF0071"/>
</linearGradient>
</defs>
</svg>
