<svg width="17" height="17" viewBox="0 0 17 17" fill="none" xmlns="http://www.w3.org/2000/svg">
<path fill-rule="evenodd" clip-rule="evenodd" d="M10.2084 6.27435C9.77385 6.27435 9.42159 5.92209 9.42159 5.48755C9.42159 5.053 9.77385 4.70074 10.2084 4.70074H14.1424C14.577 4.70074 14.9292 5.053 14.9292 5.48755V9.42158C14.9292 9.85612 14.577 10.2084 14.1424 10.2084C13.7079 10.2084 13.3556 9.85612 13.3556 9.42158V7.38706L9.97794 10.7647C9.67068 11.072 9.1725 11.072 8.86523 10.7647L7.06117 8.96068L3.68349 12.3384C3.37623 12.6456 2.87805 12.6456 2.57078 12.3384C2.26352 12.0311 2.26352 11.5329 2.57078 11.2256L6.50481 7.29161C6.81208 6.98434 7.31026 6.98434 7.61752 7.29161L9.42159 9.09567L12.2429 6.27435H10.2084Z" fill="url(#paint0_linear_1_5151)"/>
<defs>
<linearGradient id="paint0_linear_1_5151" x1="8.63478" y1="4.70074" x2="8.63478" y2="12.5688" gradientUnits="userSpaceOnUse">
<stop stop-color="#FF6FE8"/>
<stop offset="1" stop-color="#FE00C6"/>
</linearGradient>
</defs>
</svg>
