<svg width="16" height="17" viewBox="0 0 16 17" fill="none" xmlns="http://www.w3.org/2000/svg">
<g clip-path="url(#clip0_1_5066)">
<path fill-rule="evenodd" clip-rule="evenodd" d="M5.27919 2.38789C6.10032 2.05551 6.99722 1.87286 7.93483 1.87286C11.8457 1.87286 15.0161 5.04325 15.0161 8.95412C15.0161 9.38866 14.6638 9.74093 14.2293 9.74093C13.7947 9.74093 13.4425 9.38866 13.4425 8.95412C13.4425 5.91233 10.9766 3.44648 7.93483 3.44648C7.203 3.44648 6.50636 3.58879 5.86964 3.84653C5.46684 4.00958 5.00814 3.81523 4.84509 3.41243C4.68205 3.00964 4.8764 2.55094 5.27919 2.38789ZM3.73465 4.20072C4.06044 4.48827 4.09144 4.98548 3.80389 5.31127C2.94654 6.28266 2.42719 7.55678 2.42719 8.95412C2.42719 9.38866 2.07492 9.74093 1.64038 9.74093C1.20584 9.74093 0.853577 9.38866 0.853577 8.95412C0.853577 7.15877 1.52274 5.51779 2.6241 4.26996C2.91165 3.94417 3.40886 3.91317 3.73465 4.20072Z" fill="url(#paint0_linear_1_5066)"/>
<path fill-rule="evenodd" clip-rule="evenodd" d="M4.0008 8.95412C4.0008 6.78141 5.76213 5.02009 7.93483 5.02009C10.1075 5.02009 11.8689 6.78141 11.8689 8.95412C11.8689 9.38866 11.5166 9.74093 11.0821 9.74093C10.6475 9.74093 10.2953 9.38866 10.2953 8.95412C10.2953 7.6505 9.23846 6.5937 7.93483 6.5937C6.63121 6.5937 5.57441 7.6505 5.57441 8.95412C5.57441 10.2737 5.30324 11.532 4.81284 12.6747C4.64147 13.0741 4.17883 13.2589 3.77951 13.0875C3.38018 12.9161 3.19539 12.4535 3.36676 12.0542C3.77457 11.1039 4.0008 10.0564 4.0008 8.95412ZM11.02 10.5374C11.4492 10.6055 11.7419 11.0086 11.6739 11.4378C11.5703 12.0909 11.4265 12.7307 11.2451 13.3545C11.1238 13.7718 10.6872 14.0117 10.27 13.8904C9.85269 13.7691 9.61276 13.3325 9.73407 12.9153C9.89715 12.3543 10.0265 11.7788 10.1197 11.1913C10.1877 10.7621 10.5908 10.4694 11.02 10.5374Z" fill="url(#paint1_linear_1_5066)"/>
<path fill-rule="evenodd" clip-rule="evenodd" d="M7.93483 8.16731C8.36937 8.16731 8.72164 8.51958 8.72164 8.95412C8.72164 10.7137 8.3602 12.3908 7.70677 13.9138C7.53544 14.3131 7.07282 14.498 6.67348 14.3266C6.27414 14.1553 6.08931 13.6927 6.26064 13.2933C6.83151 11.9628 7.14803 10.4964 7.14803 8.95412C7.14803 8.51958 7.50029 8.16731 7.93483 8.16731Z" fill="url(#paint2_linear_1_5066)"/>
</g>
<defs>
<linearGradient id="paint0_linear_1_5066" x1="7.93483" y1="1.87286" x2="7.93483" y2="14.3906" gradientUnits="userSpaceOnUse">
<stop stop-color="#6F7DFF"/>
<stop offset="1" stop-color="#0019FE"/>
</linearGradient>
<linearGradient id="paint1_linear_1_5066" x1="7.93483" y1="1.87286" x2="7.93483" y2="14.3906" gradientUnits="userSpaceOnUse">
<stop stop-color="#6F7DFF"/>
<stop offset="1" stop-color="#0019FE"/>
</linearGradient>
<linearGradient id="paint2_linear_1_5066" x1="7.93483" y1="1.87286" x2="7.93483" y2="14.3906" gradientUnits="userSpaceOnUse">
<stop stop-color="#6F7DFF"/>
<stop offset="1" stop-color="#0019FE"/>
</linearGradient>
<clipPath id="clip0_1_5066">
<rect width="15.7361" height="15.7361" fill="white" transform="translate(0.0667725 0.299255)"/>
</clipPath>
</defs>
</svg>
