<svg width="20" height="20" viewBox="0 0 20 20" fill="none" xmlns="http://www.w3.org/2000/svg">
<path d="M10.3853 5.4875V3.91389M10.3853 5.4875C9.51625 5.4875 8.81172 6.19203 8.81172 7.06111C8.81172 7.93019 9.51625 8.63472 10.3853 8.63472M10.3853 5.4875C11.2544 5.4875 11.9589 6.19203 11.9589 7.06111C11.9589 7.93019 11.2544 8.63472 10.3853 8.63472M5.66449 14.9292C6.53358 14.9292 7.23811 14.2246 7.23811 13.3556C7.23811 12.4865 6.53358 11.7819 5.66449 11.7819M5.66449 14.9292C4.79541 14.9292 4.09088 14.2246 4.09088 13.3556C4.09088 12.4865 4.79541 11.7819 5.66449 11.7819M5.66449 14.9292V16.5028M5.66449 11.7819V3.91389M10.3853 8.63472V16.5028M15.1062 14.9292C15.9752 14.9292 16.6798 14.2246 16.6798 13.3556C16.6798 12.4865 15.9752 11.7819 15.1062 11.7819M15.1062 14.9292C14.2371 14.9292 13.5326 14.2246 13.5326 13.3556C13.5326 12.4865 14.2371 11.7819 15.1062 11.7819M15.1062 14.9292V16.5028M15.1062 11.7819V3.91389" stroke="url(#paint0_linear_1_5652)" stroke-width="1.57361" stroke-linecap="round" stroke-linejoin="round"/>
<defs>
<linearGradient id="paint0_linear_1_5652" x1="10.3853" y1="3.91389" x2="10.3853" y2="16.5028" gradientUnits="userSpaceOnUse">
<stop stop-color="#00A3FF"/>
<stop offset="0.302083" stop-color="#0085FF"/>
<stop offset="0.53125" stop-color="#001AFF"/>
<stop offset="0.734375" stop-color="#6100FF"/>
<stop offset="1" stop-color="#9104FF"/>
</linearGradient>
</defs>
</svg>
