<svg width="20" height="20" viewBox="0 0 20 20" fill="none" xmlns="http://www.w3.org/2000/svg">
<path d="M8.23488 5.48755H4.30085C3.43176 5.48755 2.72723 6.19208 2.72723 7.06116V14.1424C2.72723 15.0115 3.43176 15.716 4.30085 15.716H15.3161C16.1852 15.716 16.8897 15.0115 16.8897 14.1424V7.06116C16.8897 6.19208 16.1852 5.48755 15.3161 5.48755H11.3821M8.23488 5.48755V4.70074C8.23488 3.83166 8.93941 3.12713 9.80849 3.12713C10.6776 3.12713 11.3821 3.83166 11.3821 4.70074V5.48755M8.23488 5.48755C8.23488 6.35663 8.93941 7.06116 9.80849 7.06116C10.6776 7.06116 11.3821 6.35663 11.3821 5.48755M7.44807 11.782C8.31715 11.782 9.02168 11.0775 9.02168 10.2084C9.02168 9.3393 8.31715 8.63477 7.44807 8.63477C6.57899 8.63477 5.87446 9.3393 5.87446 10.2084C5.87446 11.0775 6.57899 11.782 7.44807 11.782ZM7.44807 11.782C8.47581 11.782 9.3501 12.4388 9.67414 13.3556M7.44807 11.782C6.42033 11.782 5.54596 12.4388 5.22192 13.3556M12.1689 9.42158H14.5293M12.1689 12.5688H13.7425" stroke="url(#paint0_linear_1_5512)" stroke-width="1.57361" stroke-linecap="round" stroke-linejoin="round"/>
<defs>
<linearGradient id="paint0_linear_1_5512" x1="9.80849" y1="3.12713" x2="9.80849" y2="15.716" gradientUnits="userSpaceOnUse">
<stop stop-color="#2704FF"/>
<stop offset="0.328125" stop-color="#CE00FF"/>
<stop offset="0.541667" stop-color="#CE00FF"/>
<stop offset="0.770833" stop-color="#FF0071"/>
<stop offset="1" stop-color="#FF0071"/>
</linearGradient>
</defs>
</svg>
