<svg width="19" height="20" viewBox="0 0 19 20" fill="none" xmlns="http://www.w3.org/2000/svg">
<path d="M6.94281 11.2642C7.10197 10.9465 7.19154 10.5879 7.19154 10.2083C7.19154 9.82881 7.10197 9.4702 6.94281 9.1525M6.94281 11.2642C6.55528 12.0377 5.75521 12.5688 4.83112 12.5688C3.5275 12.5688 2.4707 11.512 2.4707 10.2083C2.4707 8.90472 3.5275 7.84792 4.83112 7.84792C5.75521 7.84792 6.55528 8.37895 6.94281 9.1525M6.94281 11.2642L12.1611 13.8733M6.94281 9.1525L12.1611 6.54334M12.1611 6.54334C12.5486 7.31689 13.3487 7.84792 14.2728 7.84792C15.5764 7.84792 16.6332 6.79112 16.6332 5.4875C16.6332 4.18388 15.5764 3.12708 14.2728 3.12708C12.9692 3.12708 11.9124 4.18388 11.9124 5.4875C11.9124 5.86703 12.002 6.22564 12.1611 6.54334ZM12.1611 13.8733C12.002 14.191 11.9124 14.5496 11.9124 14.9292C11.9124 16.2328 12.9692 17.2896 14.2728 17.2896C15.5764 17.2896 16.6332 16.2328 16.6332 14.9292C16.6332 13.6256 15.5764 12.5688 14.2728 12.5688C13.3487 12.5688 12.5486 13.0998 12.1611 13.8733Z" stroke="url(#paint0_linear_1_5592)" stroke-width="1.57361" stroke-linecap="round" stroke-linejoin="round"/>
<defs>
<linearGradient id="paint0_linear_1_5592" x1="9.55196" y1="3.12708" x2="9.55196" y2="17.2896" gradientUnits="userSpaceOnUse">
<stop stop-color="#00A3FF"/>
<stop offset="0.302083" stop-color="#0085FF"/>
<stop offset="0.53125" stop-color="#001AFF"/>
<stop offset="0.734375" stop-color="#6100FF"/>
<stop offset="1" stop-color="#9104FF"/>
</linearGradient>
</defs>
</svg>
